<svg xmlns="http://www.w3.org/2000/svg" width="512" height="512" viewBox="0 0 512 512" role="img" aria-label="Icona Studio Tecnico Pagnoni">
  <rect width="512" height="512" rx="104" fill="#070908"/>

  <!-- Subtle topographic lines (kept simple for tiny sizes) -->
  <g fill="none" stroke="#2DD4BF" stroke-width="10" opacity="0.16">
    <path d="M34 332c66-62 146-96 242-102 92-6 150-34 202-86" />
    <path d="M54 410c74-70 160-106 262-112 92-6 142-30 182-70" />
    <path d="M40 248c54-52 124-86 212-100 98-16 162-52 210-112" opacity="0.12" />
  </g>

  <!-- Monogram "P" (high contrast, readable at 16px) -->
  <path
    d="M196 362V150c0-12 10-22 22-22h78c60 0 100 34 100 86s-40 86-100 86h-66v62c0 12-10 22-22 22h-12c-12 0-22-10-22-22Zm112-112c34 0 56-18 56-46s-22-46-56-46h-78v92h78Z"
    fill="#2DD4BF"
    opacity="0.95"
  />

  <!-- Warm accent point (GNSS / target) -->
  <circle cx="356" cy="174" r="16" fill="#EA580C" opacity="0.95" />
</svg>

